<svg xmlns="http://www.w3.org/2000/svg" xmlns:xlink="http://www.w3.org/1999/xlink" width="380" zoomAndPan="magnify" viewBox="0 0 285 91.5" height="122" preserveAspectRatio="xMidYMid meet" version="1.0"><defs><g/></defs><g fill="#fbc430" fill-opacity="1"><g transform="translate(1.529729, 73.487219)"><g><path d="M 44.078125 -53.375 C 45.148438 -53.375 46.003906 -53.03125 46.640625 -52.34375 C 47.273438 -51.65625 47.59375 -50.78125 47.59375 -49.71875 L 47.59375 -20.484375 C 47.59375 -16.472656 46.703125 -12.867188 44.921875 -9.671875 C 43.148438 -6.472656 40.703125 -3.972656 37.578125 -2.171875 C 34.453125 -0.367188 30.9375 0.53125 27.03125 0.53125 C 23.070312 0.53125 19.519531 -0.367188 16.375 -2.171875 C 13.226562 -3.972656 10.765625 -6.472656 8.984375 -9.671875 C 7.203125 -12.867188 6.3125 -16.472656 6.3125 -20.484375 L 6.3125 -49.71875 C 6.3125 -50.78125 6.664062 -51.65625 7.375 -52.34375 C 8.09375 -53.03125 9.007812 -53.375 10.125 -53.375 C 11.09375 -53.375 11.941406 -53.019531 12.671875 -52.3125 C 13.410156 -51.601562 13.78125 -50.738281 13.78125 -49.71875 L 13.78125 -20.484375 C 13.78125 -17.835938 14.390625 -15.460938 15.609375 -13.359375 C 16.828125 -11.253906 18.453125 -9.617188 20.484375 -8.453125 C 22.515625 -7.285156 24.695312 -6.703125 27.03125 -6.703125 C 29.46875 -6.703125 31.722656 -7.285156 33.796875 -8.453125 C 35.878906 -9.617188 37.539062 -11.253906 38.78125 -13.359375 C 40.03125 -15.460938 40.65625 -17.835938 40.65625 -20.484375 L 40.65625 -49.71875 C 40.65625 -50.78125 40.957031 -51.65625 41.5625 -52.34375 C 42.175781 -53.03125 43.015625 -53.375 44.078125 -53.375 Z M 44.078125 -53.375 "/></g></g></g><g fill="#fbc430" fill-opacity="1"><g transform="translate(50.106641, 73.487219)"><g><path d="M 44.3125 -50.171875 C 45.53125 -49.515625 46.140625 -48.5 46.140625 -47.125 C 46.140625 -46.21875 45.835938 -45.382812 45.234375 -44.625 C 44.617188 -43.8125 43.78125 -43.40625 42.71875 -43.40625 C 42.007812 -43.40625 41.320312 -43.582031 40.65625 -43.9375 C 37.507812 -45.707031 34.109375 -46.59375 30.453125 -46.59375 C 26.648438 -46.59375 23.285156 -45.753906 20.359375 -44.078125 C 17.441406 -42.410156 15.171875 -40.066406 13.546875 -37.046875 C 11.921875 -34.023438 11.109375 -30.5625 11.109375 -26.65625 C 11.109375 -22.4375 11.945312 -18.800781 13.625 -15.75 C 15.300781 -12.707031 17.609375 -10.382812 20.546875 -8.78125 C 23.492188 -7.1875 26.796875 -6.390625 30.453125 -6.390625 C 34.210938 -6.390625 37.613281 -7.304688 40.65625 -9.140625 C 41.269531 -9.441406 41.929688 -9.59375 42.640625 -9.59375 C 43.753906 -9.59375 44.640625 -9.160156 45.296875 -8.296875 C 45.910156 -7.535156 46.21875 -6.722656 46.21875 -5.859375 C 46.21875 -5.253906 46.050781 -4.679688 45.71875 -4.140625 C 45.394531 -3.609375 44.953125 -3.191406 44.390625 -2.890625 C 42.410156 -1.773438 40.1875 -0.882812 37.71875 -0.21875 C 35.257812 0.4375 32.835938 0.765625 30.453125 0.765625 C 25.535156 0.765625 21.003906 -0.320312 16.859375 -2.5 C 12.722656 -4.6875 9.425781 -7.863281 6.96875 -12.03125 C 4.507812 -16.195312 3.28125 -21.070312 3.28125 -26.65625 C 3.28125 -31.78125 4.457031 -36.410156 6.8125 -40.546875 C 9.175781 -44.679688 12.425781 -47.925781 16.5625 -50.28125 C 20.695312 -52.644531 25.328125 -53.828125 30.453125 -53.828125 C 35.378906 -53.828125 40 -52.609375 44.3125 -50.171875 Z M 44.3125 -50.171875 "/></g></g></g><g fill="#007835" fill-opacity="1"><g transform="translate(93.349412, 73.487219)"><g><path d="M 43.171875 -19.953125 C 43.171875 -15.992188 42.28125 -12.4375 40.5 -9.28125 C 38.726562 -6.132812 36.304688 -3.671875 33.234375 -1.890625 C 30.160156 -0.117188 26.773438 0.765625 23.078125 0.765625 C 19.367188 0.765625 15.976562 -0.117188 12.90625 -1.890625 C 9.832031 -3.671875 7.40625 -6.132812 5.625 -9.28125 C 3.851562 -12.4375 2.96875 -15.992188 2.96875 -19.953125 C 2.96875 -23.910156 3.851562 -27.488281 5.625 -30.6875 C 7.40625 -33.882812 9.832031 -36.367188 12.90625 -38.140625 C 15.976562 -39.921875 19.367188 -40.8125 23.078125 -40.8125 C 26.773438 -40.8125 30.160156 -39.921875 33.234375 -38.140625 C 36.304688 -36.367188 38.726562 -33.882812 40.5 -30.6875 C 42.28125 -27.488281 43.171875 -23.910156 43.171875 -19.953125 Z M 35.9375 -19.953125 C 35.9375 -22.691406 35.363281 -25.140625 34.21875 -27.296875 C 33.082031 -29.453125 31.535156 -31.125 29.578125 -32.3125 C 27.628906 -33.507812 25.460938 -34.109375 23.078125 -34.109375 C 20.679688 -34.109375 18.503906 -33.507812 16.546875 -32.3125 C 14.597656 -31.125 13.050781 -29.453125 11.90625 -27.296875 C 10.769531 -25.140625 10.203125 -22.691406 10.203125 -19.953125 C 10.203125 -17.253906 10.769531 -14.835938 11.90625 -12.703125 C 13.050781 -10.578125 14.597656 -8.914062 16.546875 -7.71875 C 18.503906 -6.53125 20.679688 -5.9375 23.078125 -5.9375 C 25.460938 -5.9375 27.628906 -6.53125 29.578125 -7.71875 C 31.535156 -8.914062 33.082031 -10.578125 34.21875 -12.703125 C 35.363281 -14.835938 35.9375 -17.253906 35.9375 -19.953125 Z M 35.9375 -19.953125 "/></g></g></g><g fill="#007835" fill-opacity="1"><g transform="translate(134.160036, 73.487219)"><g><path d="M 25.734375 -40.8125 C 34.867188 -40.8125 39.4375 -35.328125 39.4375 -24.359375 L 39.4375 -3.65625 C 39.4375 -2.632812 39.09375 -1.769531 38.40625 -1.0625 C 37.726562 -0.351562 36.851562 0 35.78125 0 C 34.769531 0 33.921875 -0.351562 33.234375 -1.0625 C 32.546875 -1.769531 32.203125 -2.632812 32.203125 -3.65625 L 32.203125 -24.28125 C 32.203125 -27.28125 31.515625 -29.664062 30.140625 -31.4375 C 28.773438 -33.21875 26.546875 -34.109375 23.453125 -34.109375 C 21.421875 -34.109375 19.578125 -33.664062 17.921875 -32.78125 C 16.273438 -31.894531 14.984375 -30.703125 14.046875 -29.203125 C 13.109375 -27.703125 12.640625 -26.0625 12.640625 -24.28125 L 12.640625 -3.65625 C 12.640625 -2.632812 12.296875 -1.769531 11.609375 -1.0625 C 10.921875 -0.351562 10.046875 0 8.984375 0 C 7.921875 0 7.054688 -0.34375 6.390625 -1.03125 C 5.734375 -1.71875 5.40625 -2.59375 5.40625 -3.65625 L 5.40625 -36.25 C 5.40625 -37.257812 5.75 -38.117188 6.4375 -38.828125 C 7.125 -39.535156 7.972656 -39.890625 8.984375 -39.890625 C 10.046875 -39.890625 10.921875 -39.535156 11.609375 -38.828125 C 12.296875 -38.117188 12.640625 -37.257812 12.640625 -36.25 L 12.640625 -33.578125 C 13.960938 -35.609375 15.800781 -37.320312 18.15625 -38.71875 C 20.519531 -40.113281 23.046875 -40.8125 25.734375 -40.8125 Z M 25.734375 -40.8125 "/></g></g></g><g fill="#007835" fill-opacity="1"><g transform="translate(173.676279, 73.487219)"><g><path d="M 16.21875 -32.8125 L 16.21875 -10.125 C 16.21875 -7.582031 17.359375 -6.3125 19.640625 -6.3125 C 19.992188 -6.3125 20.472656 -6.398438 21.078125 -6.578125 C 21.691406 -6.765625 22.175781 -6.859375 22.53125 -6.859375 C 23.195312 -6.859375 23.753906 -6.578125 24.203125 -6.015625 C 24.660156 -5.453125 24.890625 -4.742188 24.890625 -3.890625 C 24.890625 -2.816406 24.28125 -1.898438 23.0625 -1.140625 C 21.851562 -0.378906 20.484375 0 18.953125 0 C 17.285156 0 15.753906 -0.175781 14.359375 -0.53125 C 12.960938 -0.882812 11.71875 -1.785156 10.625 -3.234375 C 9.53125 -4.679688 8.984375 -6.878906 8.984375 -9.828125 L 8.984375 -32.8125 L 4.5625 -32.8125 C 3.601562 -32.8125 2.804688 -33.128906 2.171875 -33.765625 C 1.535156 -34.398438 1.21875 -35.203125 1.21875 -36.171875 C 1.21875 -37.128906 1.535156 -37.910156 2.171875 -38.515625 C 2.804688 -39.128906 3.601562 -39.4375 4.5625 -39.4375 L 8.984375 -39.4375 L 8.984375 -45.84375 C 8.984375 -46.851562 9.328125 -47.710938 10.015625 -48.421875 C 10.703125 -49.128906 11.578125 -49.484375 12.640625 -49.484375 C 13.648438 -49.484375 14.5 -49.128906 15.1875 -48.421875 C 15.875 -47.710938 16.21875 -46.851562 16.21875 -45.84375 L 16.21875 -39.4375 L 22.53125 -39.4375 C 23.5 -39.4375 24.300781 -39.117188 24.9375 -38.484375 C 25.570312 -37.847656 25.890625 -37.050781 25.890625 -36.09375 C 25.890625 -35.125 25.570312 -34.332031 24.9375 -33.71875 C 24.300781 -33.113281 23.5 -32.8125 22.53125 -32.8125 Z M 16.21875 -32.8125 "/></g></g></g><g fill="#37b4e3" fill-opacity="1"><g transform="translate(197.279051, 73.487219)"><g><path d="M 25.28125 -40.8125 C 26.601562 -40.8125 27.742188 -40.46875 28.703125 -39.78125 C 29.671875 -39.09375 30.15625 -38.242188 30.15625 -37.234375 C 30.15625 -36.015625 29.835938 -35.085938 29.203125 -34.453125 C 28.566406 -33.816406 27.789062 -33.5 26.875 -33.5 C 26.414062 -33.5 25.734375 -33.648438 24.828125 -33.953125 C 23.753906 -34.304688 22.914062 -34.484375 22.3125 -34.484375 C 20.738281 -34.484375 19.203125 -33.9375 17.703125 -32.84375 C 16.203125 -31.757812 14.984375 -30.265625 14.046875 -28.359375 C 13.109375 -26.453125 12.640625 -24.332031 12.640625 -22 L 12.640625 -3.65625 C 12.640625 -2.632812 12.296875 -1.769531 11.609375 -1.0625 C 10.921875 -0.351562 10.046875 0 8.984375 0 C 7.921875 0 7.054688 -0.34375 6.390625 -1.03125 C 5.734375 -1.71875 5.40625 -2.59375 5.40625 -3.65625 L 5.40625 -36.25 C 5.40625 -37.257812 5.75 -38.117188 6.4375 -38.828125 C 7.125 -39.535156 7.972656 -39.890625 8.984375 -39.890625 C 10.046875 -39.890625 10.921875 -39.535156 11.609375 -38.828125 C 12.296875 -38.117188 12.640625 -37.257812 12.640625 -36.25 L 12.640625 -32.359375 C 13.753906 -34.847656 15.425781 -36.863281 17.65625 -38.40625 C 19.894531 -39.957031 22.4375 -40.757812 25.28125 -40.8125 Z M 25.28125 -40.8125 "/></g></g></g><g fill="#37b4e3" fill-opacity="1"><g transform="translate(223.394637, 73.487219)"><g><path d="M 43.171875 -19.953125 C 43.171875 -15.992188 42.28125 -12.4375 40.5 -9.28125 C 38.726562 -6.132812 36.304688 -3.671875 33.234375 -1.890625 C 30.160156 -0.117188 26.773438 0.765625 23.078125 0.765625 C 19.367188 0.765625 15.976562 -0.117188 12.90625 -1.890625 C 9.832031 -3.671875 7.40625 -6.132812 5.625 -9.28125 C 3.851562 -12.4375 2.96875 -15.992188 2.96875 -19.953125 C 2.96875 -23.910156 3.851562 -27.488281 5.625 -30.6875 C 7.40625 -33.882812 9.832031 -36.367188 12.90625 -38.140625 C 15.976562 -39.921875 19.367188 -40.8125 23.078125 -40.8125 C 26.773438 -40.8125 30.160156 -39.921875 33.234375 -38.140625 C 36.304688 -36.367188 38.726562 -33.882812 40.5 -30.6875 C 42.28125 -27.488281 43.171875 -23.910156 43.171875 -19.953125 Z M 35.9375 -19.953125 C 35.9375 -22.691406 35.363281 -25.140625 34.21875 -27.296875 C 33.082031 -29.453125 31.535156 -31.125 29.578125 -32.3125 C 27.628906 -33.507812 25.460938 -34.109375 23.078125 -34.109375 C 20.679688 -34.109375 18.503906 -33.507812 16.546875 -32.3125 C 14.597656 -31.125 13.050781 -29.453125 11.90625 -27.296875 C 10.769531 -25.140625 10.203125 -22.691406 10.203125 -19.953125 C 10.203125 -17.253906 10.769531 -14.835938 11.90625 -12.703125 C 13.050781 -10.578125 14.597656 -8.914062 16.546875 -7.71875 C 18.503906 -6.53125 20.679688 -5.9375 23.078125 -5.9375 C 25.460938 -5.9375 27.628906 -6.53125 29.578125 -7.71875 C 31.535156 -8.914062 33.082031 -10.578125 34.21875 -12.703125 C 35.363281 -14.835938 35.9375 -17.253906 35.9375 -19.953125 Z M 35.9375 -19.953125 "/></g></g></g><g fill="#37b4e3" fill-opacity="1"><g transform="translate(264.205261, 73.487219)"><g><path d="M 13.25 -3.65625 C 13.25 -2.632812 12.890625 -1.769531 12.171875 -1.0625 C 11.460938 -0.351562 10.601562 0 9.59375 0 C 8.582031 0 7.734375 -0.351562 7.046875 -1.0625 C 6.359375 -1.769531 6.015625 -2.632812 6.015625 -3.65625 L 6.015625 -52.6875 C 6.015625 -53.707031 6.367188 -54.570312 7.078125 -55.28125 C 7.785156 -55.988281 8.648438 -56.34375 9.671875 -56.34375 C 10.679688 -56.34375 11.53125 -55.988281 12.21875 -55.28125 C 12.90625 -54.570312 13.25 -53.707031 13.25 -52.6875 Z M 13.25 -3.65625 "/></g></g></g></svg>